<?xml version="1.0" encoding="utf-8"?>
<!-- Generator: Adobe Illustrator 20.1.0, SVG Export Plug-In . SVG Version: 6.00 Build 0)  -->
<svg version="1.1" id="Capa_1" xmlns="http://www.w3.org/2000/svg" xmlns:xlink="http://www.w3.org/1999/xlink" x="0px" y="0px"
	 viewBox="0 0 707.5 237.3" style="enable-background:new 0 0 707.5 237.3;" xml:space="preserve">
<style type="text/css">
	.st0{fill:#FFFFFF;}
	.st1{fill:none;stroke:#FFFFFF;stroke-width:8.5627;stroke-miterlimit:10;}
</style>
<g>
	<g>
		<path class="st0" d="M148.2,135.8h-12.9v22h-21.2V84.2h34.1c3.7,0,7.2,0.7,10.6,2c3.4,1.3,6.4,3.1,9,5.5c2.6,2.3,4.7,5.1,6.3,8.3
			c1.6,3.2,2.3,6.6,2.3,10.2c0,3.7-0.8,7.2-2.3,10.3c-1.6,3.1-3.6,5.8-6.2,8.1c-2.6,2.3-5.6,4.1-9,5.4
			C155.4,135.2,151.9,135.8,148.2,135.8z M147.5,102.1h-11.9v14.2h11.9c1.9,0,3.6-0.7,4.9-2.1c1.3-1.4,2-3,2-4.8
			c0-1.9-0.7-3.6-2.1-5.1C151,102.8,149.4,102.1,147.5,102.1z"/>
		<path class="st0" d="M181,157.9V84.2h58.5v18.4h-39v9.1h36.9v18.6h-36.9v9.1h39v18.6H181z"/>
		<path class="st0" d="M293,157.9l-11.6-22.5h-13.1v22.5h-21.6V84.2h38.5c1.7,0,3.5,0.2,5.3,0.7c1.8,0.5,3.6,1.2,5.3,2
			c1.7,0.9,3.3,1.9,4.8,3.1c1.5,1.2,2.7,2.5,3.7,4c1.3,1.9,2.2,3.9,2.9,6c0.7,2.2,1,4.4,1,6.6c0,3.6-0.8,6.9-2.5,10.1
			c-1.6,3.2-3.9,5.8-6.7,8l17.2,33.1H293z M279.1,101.4h-10.8v14.1h10.8c1.9,0,3.6-0.7,5-2.1c1.4-1.4,2.1-3.1,2.1-5s-0.7-3.6-2.1-5
			C282.7,102.1,281,101.4,279.1,101.4z"/>
		<path class="st0" d="M321.1,157.9V84.2h58.5v18.4h-39v9.1h36.9v18.6h-36.9v9.1h39v18.6H321.1z"/>
		<path class="st0" d="M445.6,103.3h-19v54.6h-21v-54.6h-19l-1.8-1.8V84.2h62.6v17.3L445.6,103.3z"/>
		<path class="st0" d="M486.9,160.1c-5.4,0-10.4-1-15.1-3.1c-4.7-2.1-8.8-4.9-12.2-8.4c-3.4-3.5-6.2-7.7-8.1-12.4
			c-2-4.7-2.9-9.7-2.9-15c0-5.3,1-10.3,2.9-15c2-4.7,4.7-8.9,8.1-12.4c3.4-3.5,7.5-6.4,12.2-8.4c4.7-2.1,9.7-3.1,15.1-3.1
			c4.9,0,9.7,0.9,14.2,2.7c4.5,1.8,8.9,4.6,13.1,8.4l-16,14.1c-3.9-2.8-7.6-4.1-11.2-4.1c-2.5,0-4.7,0.5-6.8,1.5
			c-2.1,1-3.9,2.3-5.4,3.9c-1.5,1.6-2.7,3.5-3.6,5.7c-0.9,2.2-1.3,4.4-1.3,6.8c0,2.4,0.4,4.7,1.3,6.9c0.9,2.2,2,4.1,3.6,5.8
			c1.5,1.6,3.3,2.9,5.4,3.9c2.1,1,4.4,1.5,6.8,1.5c5.7,0,10.6-2.8,14.8-8.3l16.4,13.6c-4.2,5.1-8.9,9-14.2,11.7
			C498.6,158.8,493,160.1,486.9,160.1z"/>
		<path class="st0" d="M568.4,157.9v-26.6H545v26.6h-22V84.2h22v27.2h23.4V84.2h22v73.7H568.4z"/>
	</g>
	<polyline class="st1" points="69.7,153.6 69.7,46.5 375.3,46.5 	"/>
	<polyline class="st1" points="632.8,78.9 632.8,194.2 393.4,194.2 	"/>
</g>
</svg>
